<?xml version="1.0" encoding="utf-8"?>
<svg xmlns="http://www.w3.org/2000/svg"  style="margin: auto; display: block; shape-rendering: auto;"
  width="280" height="250" preserveAspectRatio="xMidYMid">
  <style type="text/css">
    text {
      text-anchor: middle;
      font-size: 73px;
      opacity: 0;
    }
  </style>
  <g style="transform-origin:140px 125px;transform:scale(1)">
    <g transform="translate(140,125)">
      <g transform="translate(0,0)">
        <g class="path"
          style="opacity: 1; transform-origin: -83.145px -5.75819px; animation: 0.70922s linear -0.419858s infinite normal forwards running blink-8133bc27-7b4b-4dfd-8bc3-af21fb9a0d4c;">
          <path d="M16.86 0L16.86-44.09L1.24-44.09L1.24-49.79L38.62-49.79L38.62-44.09L22.99-44.09L22.99 0L16.86 0"
            fill="#202020" stroke="none" stroke-width="none"
            transform="translate(-103.07501220703125,19.136806030273437)" style="fill: rgb(32, 32, 32);"></path>
        </g>
        <g class="path"
          style="opacity: 1; transform-origin: -47.815px 0.886806px; animation: 0.70922s linear -0.314894s infinite normal forwards running blink-8133bc27-7b4b-4dfd-8bc3-af21fb9a0d4c;">
          <path
            d="M43.73-18.18L43.73-18.18L43.73-18.18Q43.73-11.10 46.90-7.63L46.90-7.63L46.90-7.63Q50.08-4.16 55.48-4.16L55.48-4.16L55.48-4.16Q60.81-4.16 63.80-7.59L63.80-7.59L63.80-7.59Q66.79-11.02 66.79-17.88L66.79-17.88L66.79-17.88Q66.79-25.18 63.62-28.76L63.62-28.76L63.62-28.76Q60.44-32.34 54.97-32.34L54.97-32.34L54.97-32.34Q49.49-32.34 46.61-28.80L46.61-28.80L46.61-28.80Q43.73-25.26 43.73-18.18zM37.52-18.25L37.52-18.25L37.52-18.25Q37.52-23.80 39.27-27.48L39.27-27.48L39.27-27.48Q41.03-31.17 43.73-33.40L43.73-33.40L43.73-33.40Q46.43-35.62 49.53-36.54L49.53-36.54L49.53-36.54Q52.63-37.45 55.41-37.45L55.41-37.45L55.41-37.45Q58.03-37.45 61.14-36.61L61.14-36.61L61.14-36.61Q64.24-35.77 66.87-33.62L66.87-33.62L66.87-33.62Q69.50-31.46 71.25-27.85L71.25-27.85L71.25-27.85Q73-24.24 73-18.69L73-18.69L73-18.69Q73-12.92 71.21-9.13L71.21-9.13L71.21-9.13Q69.42-5.33 66.72-3.10L66.72-3.10L66.72-3.10Q64.02-0.88 60.88 0.04L60.88 0.04L60.88 0.04Q57.74 0.95 55.04 0.95L55.04 0.95L55.04 0.95Q52.27 0.95 49.20 0.07L49.20 0.07L49.20 0.07Q46.14-0.80 43.54-2.96L43.54-2.96L43.54-2.96Q40.95-5.11 39.24-8.83L39.24-8.83L39.24-8.83Q37.52-12.56 37.52-18.25"
            fill="#202020" stroke="none" stroke-width="none"
            transform="translate(-103.07501220703125,19.136806030273437)" style="fill: rgb(40, 41, 47);"></path>
        </g>
        <g class="path"
          style="opacity: 1; transform-origin: 11.605px -5.75819px; animation: 0.70922s linear -0.209929s infinite normal forwards running blink-8133bc27-7b4b-4dfd-8bc3-af21fb9a0d4c;">
          <path
            d="M110.81 0L94.24-49.79L100.45-49.79L114.76-5.84L114.83-5.84L128.92-49.79L135.12-49.79L118.55 0L110.81 0"
            fill="#202020" stroke="none" stroke-width="none"
            transform="translate(-103.07501220703125,19.136806030273437)" style="fill: rgb(174, 174, 174);"></path>
        </g>
        <g class="path"
          style="opacity: 1; transform-origin: 50.915px 1.25181px; animation: 0.70922s linear -0.104965s infinite normal forwards running blink-8133bc27-7b4b-4dfd-8bc3-af21fb9a0d4c;">
          <path
            d="M162.42 0.58L161.99-4.01L161.84-4.01L161.84-4.01Q161.18-3.50 159.94-2.66L159.94-2.66L159.94-2.66Q158.70-1.82 157.10-1.02L157.10-1.02L157.10-1.02Q155.49-0.22 153.56 0.36L153.56 0.36L153.56 0.36Q151.62 0.95 149.65 0.95L149.65 0.95L149.65 0.95Q146.95 0.95 145.05 0.26L145.05 0.26L145.05 0.26Q143.15-0.44 141.98-2.04L141.98-2.04L141.98-2.04Q140.82-3.65 140.31-6.28L140.31-6.28L140.31-6.28Q139.79-8.91 139.79-12.85L139.79-12.85L139.79-36.72L145.63-36.72L145.63-13.72L145.63-13.72Q145.63-11.53 145.71-9.78L145.71-9.78L145.71-9.78Q145.78-8.03 146.22-6.79L146.22-6.79L146.22-6.79Q146.66-5.55 147.64-4.85L147.64-4.85L147.64-4.85Q148.63-4.16 150.45-4.16L150.45-4.16L150.45-4.16Q152.35-4.16 154.39-4.96L154.39-4.96L154.39-4.96Q156.44-5.77 158.12-6.79L158.12-6.79L158.12-6.79Q160.09-7.96 161.99-9.42L161.99-9.42L161.99-36.72L167.83-36.72L167.83-4.75L167.83-4.75Q167.90-2.12 168.19 0L168.19 0L162.42 0.58"
            fill="#202020" stroke="none" stroke-width="none"
            transform="translate(-103.07501220703125,19.136806030273437)" style="fill: rgb(86, 86, 86);"></path>
        </g>
        <g class="path"
          style="opacity: 1; transform-origin: 88.805px 0.886806px; animation: 0.70922s linear 0s infinite normal forwards running blink-8133bc27-7b4b-4dfd-8bc3-af21fb9a0d4c;">
          <path
            d="M204.47-5.77L205.57-0.88L205.57-0.88Q203.89-0.36 202.10 0L202.10 0L202.10 0Q200.31 0.36 198.16 0.66L198.16 0.66L198.16 0.66Q196.00 0.95 193.67 0.95L193.67 0.95L193.67 0.95Q190.02 0.95 186.88-0.07L186.88-0.07L186.88-0.07Q183.74-1.09 181.40-3.36L181.40-3.36L181.40-3.36Q179.07-5.62 177.72-9.23L177.72-9.23L177.72-9.23Q176.37-12.85 176.37-18.10L176.37-18.10L176.37-18.10Q176.37-22.85 177.68-26.46L177.68-26.46L177.68-26.46Q179.00-30.08 181.30-32.52L181.30-32.52L181.30-32.52Q183.59-34.97 186.70-36.21L186.70-36.21L186.70-36.21Q189.80-37.45 193.45-37.45L193.45-37.45L193.45-37.45Q197.03-37.45 199.65-36.06L199.65-36.06L199.65-36.06Q202.28-34.67 204.00-32.30L204.00-32.30L204.00-32.30Q205.71-29.93 206.55-26.75L206.55-26.75L206.55-26.75Q207.39-23.58 207.39-20.07L207.39-20.07L206.30-16.86L182.72-16.86L182.72-16.86Q182.72-14.60 183.30-12.34L183.30-12.34L183.30-12.34Q183.89-10.07 185.31-8.25L185.31-8.25L185.31-8.25Q186.73-6.42 189.03-5.29L189.03-5.29L189.03-5.29Q191.33-4.16 194.76-4.16L194.76-4.16L194.76-4.16Q196.95-4.16 198.78-4.42L198.78-4.42L198.78-4.42Q200.60-4.67 201.95-5.00L201.95-5.00L201.95-5.00Q203.30-5.33 204.47-5.77L204.47-5.77zM182.94-21.54L201.33-21.54L201.33-21.54Q201.33-22.05 201.11-23.80L201.11-23.80L201.11-23.80Q200.90-25.55 200.09-27.45L200.09-27.45L200.09-27.45Q199.29-29.35 197.61-30.84L197.61-30.84L197.61-30.84Q195.93-32.34 193.16-32.34L193.16-32.34L193.16-32.34Q190.09-32.34 188.12-31.06L188.12-31.06L188.12-31.06Q186.15-29.78 184.98-28.03L184.98-28.03L184.98-28.03Q183.81-26.28 183.38-24.45L183.38-24.45L183.38-24.45Q182.94-22.63 182.94-21.54L182.94-21.54"
            fill="#202020" stroke="none" stroke-width="none"
            transform="translate(-103.07501220703125,19.136806030273437)" style="fill: rgb(24, 24, 24);"></path>
        </g>
      </g>
    </g>
  </g>
  <style id="blink-8133bc27-7b4b-4dfd-8bc3-af21fb9a0d4c" data-anikit="">
    @keyframes blink-8133bc27-7b4b-4dfd-8bc3-af21fb9a0d4c {
      0% {
        opacity: 1;
      }

      49.75% {
        opacity: 1;
      }

      50.25% {
        opacity: 0;
      }

      99.5% {
        opacity: 0;
      }

      100% {
        opacity: 1;
      }
    }
  </style>
</svg>